PathFileType	4	(X/Y/Z)	69_2_41_p0_0-257.trc
DataRate	CameraRate	NumFrames	NumMarkers	Units	OrigDataRate	OrigDataStartFrame	OrigNumFrames
50.0	50.0	7	27	m	50.0	0	258
Frame#	Time	RHip			RKnee			RAnkle			RBigToe			RSmallToe			RHeel			LHip			LKnee			LAnkle			LBigToe			LSmallToe			LHeel			Neck			Head			Nose			RShoulder			RElbow			RWrist			RThumb			RIndex			RPinky			LShoulder			LElbow			LWrist			LThumb			LIndex			LPinky			
		X1	Y1	Z1	X2	Y2	Z2	X3	Y3	Z3	X4	Y4	Z4	X5	Y5	Z5	X6	Y6	Z6	X7	Y7	Z7	X8	Y8	Z8	X9	Y9	Z9	X10	Y10	Z10	X11	Y11	Z11	X12	Y12	Z12	X13	Y13	Z13	X14	Y14	Z14	X15	Y15	Z15	X16	Y16	Z16	X17	Y17	Z17	X18	Y18	Z18	X19	Y19	Z19	X20	Y20	Z20	X21	Y21	Z21	X22	Y22	Z22	X23	Y23	Z23	X24	Y24	Z24	X25	Y25	Z25	X26	Y26	Z26	X27	Y27	Z27	
0	0.0	0.2590200332492949	0.5366419973891577	0.5007403156457997	0.23710722385974947	0.5596388170585566	0.9334558382252103	0.19883159688215238	0.5964402712204124	1.32610110947291	0.24728388257567788	0.45767227910785496	1.3454871965442208	0.3000086357236639	0.49303620280817073	1.3401620453616856	0.15022548065548968	0.6673505508457417	1.395720386857184	0.0692538060085094	0.5018233567775497	0.5073412937494255	0.05317886453061367	0.5158580077221553	0.920914873251664	0.03253704013119203	0.5587872264259669	1.3354046189891395	0.11272949618794856	0.39459711710828715	1.320535781020379	0.0425543975061832	0.4287806994809561	1.3277143196548682	0.028229502582895062	0.5995801312619162	1.380025815103379	0.1963399383228329	0.5354364891177038	-0.013332874339630605	0.23827861032781808	0.49363848534759436	-0.2563896728853231	0.2544188952925496	0.41441830663934587	-0.14051307353553463	0.34933154166407765	0.5385235958939868	0.06971920329421893	0.3389362522004888	0.5088480344870278	0.308820869771121	0.25441291789393394	0.37376231598810983	0.4753238872784001	0.20609646446996083	0.29930476536821204	0.5515147604137667	0.2083013426909253	0.3137195263357725	0.5710743085827237	0.22049629224502823	0.3461217347197523	0.5789716759675034	0.058738107599250564	0.4860639701973414	0.04365383796814657	0.05283469826855113	0.4208100619948344	0.29056657353106874	0.15154644133233997	0.3283026919349306	0.4648158253081454	0.22815976048930978	0.30923441956771164	0.5318306484590695	0.22861336258936668	0.29855014647703254	0.5522000177774099	0.20031082791511276	0.31274664540820285	0.5612775860992466
1	0.02	0.2585927630341007	0.5363744319939487	0.5048268127144491	0.23743520706682517	0.5452090104536287	0.932213155170012	0.2083108593364371	0.5831583758396561	1.317663467652568	0.24614275954221926	0.47278883550711487	1.357435073295156	0.2952166646538913	0.4926103609381845	1.3357186915642556	0.1502639369290299	0.6670837552944662	1.3956164222671776	0.06596076486160166	0.5003710854931118	0.5158935119252727	0.052065835721307616	0.5157123023841815	0.9246332128776789	0.032762458397897036	0.5584746682136145	1.3356496613329605	0.12140947336425018	0.38463742093542164	1.3089613255097117	0.05151094485905175	0.41749967529296056	1.3233429711225317	0.027739927023352037	0.5979647388842454	1.3841014303306394	0.19607611350427145	0.5351014629914834	-0.010002082122811595	0.2381970116396718	0.49384344802990265	-0.25979276466142925	0.25436543010260937	0.4142062891973151	-0.14052740868526803	0.34940969204663486	0.5384956509705351	0.0696451825337657	0.3381270561493778	0.5203946547655709	0.3151678122080705	0.25412284835024185	0.37387526730372644	0.4755329701574514	0.20620853558732813	0.29992114523218455	0.5564229685116407	0.2095526227941869	0.3014707600913103	0.5674135133592658	0.22063548715341075	0.3460413921794918	0.5788702672020315	0.057379351245342144	0.49831800322762837	0.04140417937577641	0.05277601280456832	0.42085210862623434	0.290503941238631	0.15171760461619976	0.328177924904181	0.4648197387785557	0.22847709770395444	0.30865672416536255	0.5355770809307324	0.2285489495082024	0.2983068257118503	0.5524379192598762	0.2033895858635695	0.31384604019341883	0.5613367573083807
2	0.04	0.2585281855429818	0.5366476312766285	0.5050965797392236	0.2364361972475419	0.5452043740817417	0.936509481238117	0.19861538766376433	0.5965660542484906	1.326189286422577	0.24809604248839268	0.45853474737294797	1.340899787939579	0.2870708370386061	0.5056527534734997	1.3396964875138797	0.14947375620117107	0.6686239743589628	1.3910576180532728	0.06591663637060667	0.5005022846291286	0.5161492892129607	0.04818035507120011	0.5150217934541875	0.9300374541118241	0.03265243813213351	0.5587469026906406	1.3355677610864083	0.12297541200178669	0.3717532519569945	1.3022448523737382	0.05118704481970263	0.4174596572966695	1.3239985863210255	0.02715132222836301	0.5993402980469528	1.3849761748328735	0.1960271094995114	0.5351016861177239	-0.009928452131086073	0.23830188400459582	0.49365128124067026	-0.2564185957091065	0.25441832910902445	0.41422329641910755	-0.1405100383687573	0.3494006586061178	0.5386582143074125	0.06971634248608924	0.33810307271140666	0.5206572766136845	0.31513551264062056	0.2540699611121488	0.37401699360588647	0.4756160392508453	0.20633765006001678	0.29981548398803237	0.5562513328462753	0.20905655779241133	0.31342601561883243	0.5675161678618688	0.21919494696064323	0.3589813208466753	0.5827158360545356	0.05576929868298206	0.4820626724232331	0.043197018504153445	0.05283052306212519	0.42076142846816916	0.29056770504193835	0.15044851707516468	0.33939691940584243	0.4678313039858554	0.22861115648449884	0.30853275381245354	0.5355139742858881	0.22868035828109395	0.298296372346042	0.5524507316269025	0.20387109327871605	0.31389025688411987	0.5611423516919639
3	0.06	0.2539160009760684	0.547374698754295	0.5079684395223707	0.23735639881378148	0.5451196638992083	0.9324179066732635	0.19747106453997026	0.5967998189671446	1.330535296272007	0.24699997134646187	0.4580014257601809	1.3455409387262423	0.2952828910389307	0.492101738597951	1.3357332524658065	0.1494623272413865	0.6688681641371306	1.391379674348394	0.06581841174785108	0.500670383995755	0.5163472638597548	0.042907222880740115	0.528394339263663	0.9402692997398377	0.032897694828308496	0.5605387135852742	1.3422160359747501	0.1177814728229456	0.3797919771209904	1.3160042527317068	0.06108947484823687	0.40593793193593225	1.3159121164150764	0.027534612492655167	0.6015870056452446	1.390659637400539	0.19600520519724066	0.5351174670549496	-0.009971212596231094	0.2382570059119841	0.49374958020324594	-0.2597817277661147	0.25445683413618725	0.4140987705797954	-0.14051209171923804	0.34933984122454576	0.5387340097383528	0.06960663724161963	0.33814307050599873	0.5211933116546131	0.3149583059336661	0.25446262135638825	0.3742255791915297	0.4752887044537741	0.21431571460221058	0.2895834720393696	0.5478338932634192	0.20855051965722654	0.31452042136206715	0.5641677480193186	0.2157432613510554	0.3578916122915861	0.5827576698090063	0.055798132115117874	0.4819322351382813	0.04315485971620047	0.05267568580862623	0.42070121924878273	0.29049106332748537	0.15143173145821937	0.3276985174837516	0.45723974217346625	0.22780800516658495	0.3199087942000409	0.5386917926995076	0.22781765832880627	0.30989588270625634	0.5558178301483296	0.20425020632835783	0.3019739676084221	0.5579058730151567
4	0.08	0.25402841031611345	0.5470808042139458	0.5080753787708985	0.23732369697555794	0.5453755706961999	0.9324411536561735	0.19858392424520707	0.5966332235278792	1.3262863842608195	0.24815686817532404	0.4581059547019668	1.3407970244174456	0.2872159259999064	0.5049454460775007	1.3397985795179974	0.14945192655161313	0.6687731636646793	1.391255096472577	0.06590105431652066	0.5004876901604494	0.516164525924171	0.048365079213508376	0.5129168297117519	0.9243456034845612	0.0329071218509616	0.5605224767171341	1.3423318902625674	0.12313632202507843	0.3715563390825853	1.302127417625066	0.06113697754926361	0.40581594730422355	1.315925994812582	0.02735060767731157	0.6013802572856604	1.390701551636058	0.19600387010486453	0.5351492497395888	-0.009959910173683481	0.23819807407771973	0.4938315279726284	-0.25980769221570305	0.253739320490463	0.42507898265342914	-0.1398380485887128	0.34936599395807266	0.5387034355744342	0.06963649858959091	0.33846548252579756	0.5205443532036121	0.31859137058453796	0.2543638352856125	0.3741511079839533	0.47532343435087376	0.2143818772986345	0.28940638378485484	0.5478039329136344	0.20856278182070953	0.31428274804921386	0.5642478460972454	0.21915658584397615	0.3603936628490093	0.5875824637881697	0.05575981333693177	0.4819890709850581	0.04318704056200782	0.052363904191835946	0.4200957149166304	0.29428466405419806	0.1515185576219476	0.32757730153342346	0.4572352236977877	0.22485864547674164	0.3164385134911575	0.5380748714706318	0.2277853455384413	0.30976935915635645	0.5558636311081274	0.20443140057121253	0.3018348526161999	0.5575767777179286
5	0.1	0.25495504085635357	0.5339219791504433	0.5047836271823676	0.23586522936490523	0.5462974401330105	0.9335184298979251	0.19746464808047715	0.5966491795307124	1.3304649002875404	0.2471355769790206	0.4577929724418168	1.3453443151102626	0.295274935558456	0.49215246434626936	1.3356946181166562	0.1494739762821934	0.668691511489651	1.391255368957322	0.06542726090345599	0.5002260052463201	0.5197872625299058	0.03871485611109573	0.5267003693105384	0.9361435605410521	0.03292593367388268	0.5605833787093422	1.342304835888824	0.1230295918392419	0.37165970760451866	1.3021241281488252	0.051348126695192356	0.41732757791674646	1.3236056722251202	0.02769902556752709	0.6013782795487232	1.3905248324091746	0.19601033769872117	0.535189645069788	-0.009982886712115453	0.238319191035703	0.49365626911152133	-0.2563947320305636	0.25449166715430954	0.4140817198170368	-0.14047873795833635	0.3493887963284303	0.5386710870791552	0.06966744713223759	0.3384598417609362	0.5206639712413021	0.3186009168291763	0.25441681839021646	0.37419568943290393	0.4753033895653477	0.20633305961934256	0.29857908553151963	0.5513045331862161	0.2088783028350262	0.31379567676581666	0.5673996136438848	0.21986400713913046	0.36039316422671897	0.5846155274146998	0.0557135516983646	0.4820391018262577	0.04316001064963457	0.052010071429236665	0.4206418383625586	0.2908798525930357	0.15462673732172555	0.33082420673049034	0.4577117379480843	0.2247538577798991	0.31649686243991787	0.5380687203409947	0.22836647859883016	0.3100199672842357	0.5520347664711316	0.20432547831563663	0.3026585108255544	0.5577370490562934
6	0.12	0.25543982436189044	0.5342346773381632	0.500692682262036	0.23682586950338058	0.5463368780843139	0.9289997358228643	0.19858780894824216	0.5963718654227129	1.3260820590947682	0.24758850937904037	0.4592618862392308	1.3364304084171765	0.28729060521733846	0.5050466274725639	1.3395341431269496	0.14951407926858015	0.66852710873956	1.3909502248448773	0.06590658920716597	0.5005309921720544	0.516236161764562	0.051883050596878616	0.5179433594219633	0.9307385332589626	0.03274791996268105	0.5609063135153766	1.3422362370735184	0.12143333489078426	0.38455041527776196	1.3090552579019472	0.05122633832491581	0.41767015443297834	1.3238108459602518	0.024932613720204343	0.6164165102979114	1.398665166875076	0.1960230166717319	0.5352178463338569	-0.009966550669142388	0.2390780770327555	0.4821205504575118	-0.25661846675358646	0.25460414677357296	0.41399885845221246	-0.14036634050205712	0.34916901769067826	0.5508603972038411	0.07112888199432978	0.33847996536317654	0.5204605480119611	0.3185661815812588	0.25486593037528593	0.3746739621020579	0.46828712972846875	0.20632146272105606	0.298715129894704	0.5513849667616001	0.20847478071451714	0.3145135879112184	0.5642196746552398	0.21643786391469114	0.3590873908897128	0.5846581330131636	0.05595380539415838	0.48099772447424205	0.03971583725531346	0.05270675499580159	0.4205823796439451	0.2904632386857319	0.15145414450932765	0.3277119698617861	0.45717334321802344	0.22775906653300215	0.32003121704080467	0.5387362706068617	0.22842604442895278	0.3099868751308159	0.5520392847375878	0.2042292816636893	0.3021633976943112	0.5576558306269821
